<svg width="16" height="17" viewBox="0 0 16 17" fill="none" xmlns="http://www.w3.org/2000/svg">
<path d="M3 6.29449V5C3 4.72385 2.77615 4.5 2.5 4.5H1.5C1.22385 4.5 1 4.72385 1 5V8.06781C1.44196 7.27045 2.14835 6.64056 3 6.29449Z" fill="#858699"/>
<path d="M4.5 6C4.84583 6 5.17972 6.04874 5.5 6.13165V3.5C5.5 3.22385 5.27615 3 5 3H4C3.72385 3 3.5 3.22385 3.5 3.5V6.13165C3.82028 6.04874 4.15417 6 4.5 6Z" fill="#858699"/>
<path d="M8 8.06781V2C8 1.72385 7.77615 1.5 7.5 1.5H6.5C6.22385 1.5 6 1.72385 6 2V6.29449C6.85165 6.64056 7.55804 7.27045 8 8.06781Z" fill="#858699"/>
<path d="M13 1.5V3.5H15L13 1.5Z" fill="#858699"/>
<path d="M13 4C12.7239 4 12.5 3.77615 12.5 3.5V1.5H9.5C9.22388 1.5 9 1.72385 9 2V9C9 9.27615 9.22388 9.5 9.5 9.5H14.5C14.7762 9.5 15 9.27615 15 9V4H13ZM13.75 8.5H10.25C10.1118 8.5 10 8.38818 10 8.25C10 8.11182 10.1118 8 10.25 8H13.75C13.8882 8 14 8.11182 14 8.25C14 8.38818 13.8882 8.5 13.75 8.5ZM13.75 7.5H10.25C10.1118 7.5 10 7.38818 10 7.25C10 7.11182 10.1118 7 10.25 7H13.75C13.8882 7 14 7.11182 14 7.25C14 7.38818 13.8882 7.5 13.75 7.5ZM13.75 6.5H10.25C10.1118 6.5 10 6.38818 10 6.25C10 6.11182 10.1118 6 10.25 6H13.75C13.8882 6 14 6.11182 14 6.25C14 6.38818 13.8882 6.5 13.75 6.5ZM13.75 5.5H10.25C10.1118 5.5 10 5.38818 10 5.25C10 5.11182 10.1118 5 10.25 5H13.75C13.8882 5 14 5.11182 14 5.25C14 5.38818 13.8882 5.5 13.75 5.5Z" fill="#858699"/>
<path d="M14.5 10H13.5C13.2239 10 13 10.2239 13 10.5C13 10.715 13.1373 10.8946 13.3278 10.9652L12.5 11.793L11.8535 11.1465C11.6582 10.9512 11.3418 10.9512 11.1465 11.1465L9.60352 12.6895C9.60352 12.6895 10.2161 13.3029 10.3095 13.3976L11.5 12.207L12.1465 12.8535C12.3418 13.0488 12.6582 13.0488 12.8535 12.8535L14.0348 11.6722C14.1054 11.8627 14.285 12 14.5 12C14.7761 12 15 11.7761 15 11.5V10.5C15 10.2239 14.7761 10 14.5 10Z" fill="#858699"/>
<path d="M9.64648 13.4395L8.35352 12.1465C8.19492 11.9879 7.95947 11.9649 7.77087 12.0638L7.50021 11.7932C7.81537 11.2679 8 10.6559 8 10C8 8.07007 6.42993 6.5 4.5 6.5C2.57007 6.5 1 8.07007 1 10C1 11.9299 2.57007 13.5 4.5 13.5C5.15585 13.5 5.76794 13.3154 6.29318 13.0002L6.56384 13.2709C6.46487 13.4595 6.48788 13.6949 6.64648 13.8535L7.93945 15.1465C8.16748 15.3745 8.47046 15.5 8.79297 15.5C9.11548 15.5 9.41846 15.3745 9.64648 15.1465C9.87451 14.9185 10 14.6155 10 14.293C10 13.9705 9.87451 13.6675 9.64648 13.4395ZM4.5 12.5C3.11929 12.5 2 11.3807 2 10C2 8.61929 3.11929 7.5 4.5 7.5C5.88071 7.5 7 8.61929 7 10C7 11.3807 5.88071 12.5 4.5 12.5Z" fill="#858699"/>
<path d="M4.5 12C3.39722 12 2.5 11.1028 2.5 10C2.5 8.89722 3.39722 8 4.5 8C5.60278 8 6.5 8.89722 6.5 10C6.5 11.1028 5.60278 12 4.5 12Z" fill="#858699"/>
</svg>
