<svg width="8" height="8" viewBox="0 0 8 8" fill="none" xmlns="http://www.w3.org/2000/svg">
<path d="M4.46875 0.875C4.46875 0.616119 4.25888 0.40625 4 0.40625C3.74112 0.40625 3.53125 0.616119 3.53125 0.875V3.53125H0.875C0.616119 3.53125 0.40625 3.74112 0.40625 4C0.40625 4.25888 0.616119 4.46875 0.875 4.46875H3.53125V7.125C3.53125 7.38387 3.74112 7.59375 4 7.59375C4.25888 7.59375 4.46875 7.38387 4.46875 7.125V4.46875H7.125C7.38387 4.46875 7.59375 4.25888 7.59375 4C7.59375 3.74112 7.38387 3.53125 7.125 3.53125H4.46875V0.875Z" fill="#858699"/>
</svg>
