<svg width="16" height="16" viewBox="0 0 16 16" fill="none" xmlns="http://www.w3.org/2000/svg">
<path fill-rule="evenodd" clip-rule="evenodd" d="M10.4615 7.38462C10.4615 9.08395 9.08396 10.4615 7.38462 10.4615C5.68529 10.4615 4.3077 9.08395 4.3077 7.38462C4.3077 5.68528 5.68529 4.30769 7.38462 4.30769C9.08396 4.30769 10.4615 5.68528 10.4615 7.38462ZM10.1517 11.4571C9.3631 11.9938 8.41051 12.3077 7.38462 12.3077C4.66568 12.3077 2.46155 10.1036 2.46155 7.38462C2.46155 4.66568 4.66568 2.46154 7.38462 2.46154C10.1036 2.46154 12.3077 4.66568 12.3077 7.38462C12.3077 8.4105 11.9939 9.36309 11.4571 10.1517L14.4988 13.1935C14.8593 13.554 14.8593 14.1383 14.4988 14.4988C14.1383 14.8593 13.554 14.8593 13.1935 14.4988L10.1517 11.4571Z" fill="#858699"/>
</svg>
